<?xml version="1.0" standalone="no"?>
<!DOCTYPE svg PUBLIC "-//W3C//DTD SVG 20010904//EN"
 "http://www.w3.org/TR/2001/REC-SVG-20010904/DTD/svg10.dtd">
<svg xmlns="http://www.w3.org/2000/svg"
 width="50.000000pt" height="40.000000pt" viewBox="0 0 610.000000 611.000000"
 preserveAspectRatio="xMidYMid meet">

<g transform="translate(0.000000,611.000000) scale(0.100000,-0.100000)"
fill="#959BA0" stroke="none">
<path d="M245 6098 c-20 -66 -49 -164 -139 -480 l-106 -367 0 -1825 c0 -1729
1 -1825 18 -1830 9 -3 80 -23 157 -45 77 -21 194 -55 260 -74 192 -57 415
-121 800 -232 198 -57 414 -119 480 -138 66 -20 300 -87 520 -151 220 -63 470
-135 555 -159 305 -89 619 -180 870 -252 140 -40 309 -89 375 -108 133 -39
418 -122 865 -251 162 -46 334 -96 383 -110 284 -84 228 -76 537 -76 l280 0 0
1291 c0 710 -3 1289 -7 1287 -5 -2 -41 -20 -80 -39 -67 -31 -73 -37 -73 -64 0
-67 -20 -105 -98 -186 -69 -71 -81 -79 -115 -79 -46 0 -111 39 -132 79 -37 72
-5 130 93 174 33 15 64 33 71 40 14 17 28 246 14 232 -6 -5 -47 -62 -93 -125
-89 -125 -160 -203 -202 -226 -38 -20 -97 -17 -135 6 -25 15 -36 32 -50 77
-19 63 -23 180 -9 256 l8 47 -77 -80 c-90 -92 -145 -121 -193 -101 -44 19 -57
53 -57 151 l0 87 -70 -72 c-82 -84 -166 -132 -206 -116 -38 14 -50 34 -56 94
l-6 55 -40 -14 c-55 -20 -111 -17 -157 6 -46 24 -60 47 -69 112 l-6 48 -60
-82 c-116 -158 -246 -273 -302 -266 -23 2 -33 13 -57 63 l-29 60 10 130 10
130 68 135 c38 74 104 192 147 261 89 144 153 280 144 304 -25 66 -320 -173
-393 -319 -20 -39 -51 -94 -69 -122 -19 -29 -42 -73 -50 -98 -13 -36 -28 -56
-69 -86 -29 -21 -74 -64 -100 -94 -33 -39 -55 -56 -71 -56 -20 0 -24 5 -24 33
0 38 55 212 99 314 17 40 31 73 31 75 0 2 -28 3 -63 3 -44 0 -72 6 -91 19 -33
21 -38 17 -55 -49 -6 -27 -23 -66 -36 -85 -39 -57 -71 -70 -168 -70 -81 0 -87
2 -125 33 -49 40 -91 104 -99 151 -3 20 -8 36 -10 36 -3 0 -30 -22 -61 -49
-31 -27 -93 -71 -137 -98 -71 -44 -86 -59 -137 -135 -32 -48 -80 -105 -110
-129 -29 -24 -71 -62 -93 -85 -59 -61 -111 -84 -190 -84 -53 0 -73 5 -106 25
-48 31 -79 78 -79 121 0 64 66 102 295 169 50 15 100 31 112 35 29 12 184 325
251 510 78 212 96 296 88 413 -6 97 -6 97 17 97 35 0 102 -55 137 -112 l32
-51 -21 -120 c-24 -135 -92 -320 -191 -519 -32 -65 -54 -118 -49 -118 18 0 90
51 170 121 61 54 87 86 113 137 19 37 52 83 73 102 34 32 58 47 149 95 37 19
77 19 113 1 33 -17 61 -57 61 -86 0 -29 -27 -25 -34 5 -15 59 -66 17 -187
-155 -59 -84 -71 -116 -67 -176 3 -47 4 -49 35 -52 59 -6 147 58 187 137 14
26 13 30 -12 65 -25 35 -25 39 -11 64 10 19 24 28 48 30 48 5 71 -20 71 -78 0
-46 1 -48 40 -64 41 -16 98 -20 137 -10 18 5 44 50 115 198 159 328 161 331
182 328 10 -2 29 -13 41 -25 48 -47 58 -143 25 -248 -10 -35 -17 -65 -14 -68
2 -3 26 16 52 40 97 93 220 169 274 169 50 0 98 -71 98 -145 0 -68 -65 -242
-142 -376 -55 -98 -80 -146 -121 -239 -13 -30 -42 -84 -63 -120 -54 -88 -74
-142 -74 -195 0 -37 3 -45 18 -45 41 0 313 324 374 444 33 67 132 195 146 191
7 -3 29 4 50 15 94 51 192 -2 203 -109 5 -48 -17 -51 -37 -4 -28 65 -30 68
-56 71 -19 2 -33 -7 -60 -40 -19 -24 -41 -54 -48 -68 -7 -14 -33 -56 -59 -94
-42 -64 -46 -74 -46 -133 0 -52 4 -67 19 -79 11 -8 26 -14 33 -14 23 0 147
134 192 208 46 74 59 83 85 56 16 -15 15 -38 -5 -92 -5 -13 -9 -38 -9 -56 0
-18 -18 -71 -39 -117 -49 -105 -59 -139 -39 -139 51 0 270 230 341 358 37 66
48 95 45 120 -6 49 31 44 76 -12 46 -55 47 -99 7 -217 -43 -128 -77 -186 -133
-226 -26 -19 -48 -38 -48 -43 0 -18 32 -32 61 -26 57 11 249 216 283 303 11
26 56 125 102 218 62 129 98 190 151 254 82 101 93 109 127 93 57 -26 42 -117
-49 -297 -33 -66 -80 -147 -105 -180 -45 -61 -72 -125 -116 -275 -45 -153 -75
-234 -101 -272 -20 -30 -23 -40 -14 -57 30 -55 111 -24 201 76 63 71 215 296
231 343 41 118 130 176 208 136 34 -18 91 -81 91 -102 0 -22 -25 -66 -49 -88
-25 -23 -41 -13 -19 11 26 30 27 93 2 93 -36 0 -83 -41 -100 -86 -18 -46 -15
-85 12 -226 7 -37 32 -36 105 4 l59 33 0 972 0 972 -42 11 c-24 6 -79 22 -124
35 -44 14 -231 68 -415 120 -184 53 -417 120 -519 150 -102 30 -350 101 -552
159 -203 58 -533 154 -735 212 -203 58 -435 125 -518 149 -82 24 -301 87 -485
140 -184 53 -420 121 -525 151 -104 31 -323 94 -485 140 -162 47 -412 119
-555 161 -468 135 -399 123 -663 123 -177 0 -234 -3 -237 -12z m1475 -1368
c23 -12 39 -64 32 -108 -6 -44 -44 -82 -81 -82 -32 0 -86 39 -96 69 -8 25 22
98 48 116 25 17 70 19 97 5z m-183 -201 c37 -14 88 -64 119 -117 l25 -42 -20
-113 c-26 -143 -115 -383 -205 -551 -26 -49 -45 -90 -43 -93 10 -10 118 68
191 137 49 47 86 92 107 133 40 78 83 119 181 170 73 38 79 40 117 29 46 -14
91 -63 91 -98 0 -33 -16 -30 -35 6 -9 17 -21 30 -28 30 -16 0 -49 -35 -103
-110 -22 -30 -53 -72 -68 -93 -38 -52 -56 -100 -56 -150 0 -69 29 -83 100 -47
48 25 81 55 109 100 26 43 26 55 1 87 -26 33 -25 57 2 83 28 25 48 25 82 -1
21 -17 26 -29 26 -65 0 -43 2 -46 43 -64 74 -34 149 -19 223 43 36 31 44 33
44 13 0 -19 -65 -75 -106 -92 -44 -18 -126 -18 -171 1 -20 9 -39 12 -43 8 -3
-5 -14 -35 -24 -68 -19 -64 -42 -94 -94 -127 -27 -17 -46 -19 -111 -17 -67 4
-83 8 -115 33 -51 39 -95 102 -102 148 -4 21 -11 38 -16 38 -6 0 -35 -23 -66
-51 -31 -28 -91 -72 -135 -97 -43 -25 -86 -57 -95 -71 -56 -92 -112 -167 -140
-190 -18 -14 -59 -50 -91 -78 -81 -74 -136 -97 -214 -88 -75 8 -133 42 -153
90 -21 51 -17 81 14 115 27 31 68 47 287 115 50 16 97 35 107 44 30 29 175
334 231 486 84 228 92 262 91 403 -1 67 2 122 7 122 4 0 20 -5 36 -11z m1513
-179 c49 -26 45 -139 -7 -179 -33 -27 -49 -26 -90 2 -50 34 -59 66 -34 115 33
64 83 88 131 62z m2213 -1029 c34 -13 50 -62 31 -90 -20 -28 -59 -27 -90 4
-19 19 -23 31 -18 48 14 46 31 55 77 38z m-4825 -570 c8 -5 21 -62 33 -152 10
-79 20 -147 22 -152 1 -4 46 47 101 113 54 66 101 120 105 120 3 0 12 -4 20
-9 11 -7 5 -38 -33 -166 -25 -87 -48 -160 -50 -163 -3 -2 -9 -1 -14 2 -10 6
-3 37 45 194 13 46 23 86 21 88 -3 2 -49 -50 -103 -116 -83 -101 -115 -133
-115 -117 0 2 -40 309 -41 317 -1 7 -11 -24 -51 -159 -19 -63 -40 -117 -46
-119 -7 -2 -12 2 -12 9 0 14 79 299 87 312 5 9 15 9 31 -2z m515 -153 c9 -25
41 -347 35 -354 -14 -13 -28 9 -28 44 0 20 -4 42 -8 48 -7 11 -138 54 -166 54
-8 0 -27 -16 -42 -35 -26 -35 -44 -45 -44 -24 0 17 220 279 235 279 7 0 15 -6
18 -12z m196 -125 c-10 -36 -17 -68 -15 -70 1 -2 46 17 98 42 91 43 128 54
128 38 -1 -5 -43 -28 -95 -52 -52 -25 -95 -49 -95 -54 0 -5 25 -54 55 -110 30
-55 55 -102 55 -103 0 -2 -6 -4 -14 -4 -8 0 -43 51 -77 113 l-63 112 -25 -82
c-16 -53 -30 -83 -39 -83 -10 0 -13 8 -9 23 12 56 81 283 90 294 21 28 23 0 6
-64z m469 -72 c5 -16 -13 -14 -88 9 -36 11 -70 20 -76 20 -6 0 -18 -25 -26
-55 -18 -64 -16 -67 69 -85 55 -12 81 -26 70 -36 -7 -7 -104 14 -151 32 -11 4
-18 -5 -26 -37 -22 -80 -19 -90 25 -105 22 -7 59 -18 83 -24 42 -11 58 -30 25
-30 -17 0 -183 47 -189 53 -4 3 82 302 90 315 7 12 189 -42 194 -57z m190 -58
c5 -10 17 -47 27 -83 10 -36 22 -69 26 -74 4 -5 40 19 79 53 39 34 76 59 81
55 13 -8 4 -18 -81 -89 -66 -57 -71 -64 -92 -132 -13 -44 -26 -73 -35 -73 -17
0 -17 3 7 80 l19 64 -29 102 c-17 56 -30 105 -30 108 0 13 20 5 28 -11z m467
-120 c132 -80 103 -283 -46 -323 -114 -31 -224 60 -216 177 10 138 147 215
262 146z m215 -70 c0 -5 -14 -55 -30 -112 -39 -134 -39 -162 1 -195 20 -17 43
-26 64 -26 53 0 78 35 116 166 20 71 38 114 46 114 17 0 18 0 -18 -122 -36
-122 -71 -174 -122 -183 -67 -13 -147 47 -147 109 0 50 61 256 77 256 7 0 13
-3 13 -7z m368 -99 c62 -18 112 -60 112 -94 0 -48 -38 -89 -84 -90 -25 0 -28
-3 -22 -22 25 -91 38 -150 33 -154 -14 -14 -26 12 -47 95 -18 73 -26 90 -43
95 -39 10 -43 7 -61 -64 -18 -67 -30 -89 -43 -76 -6 5 72 297 84 319 6 10 7 9
71 -9z m402 -117 c30 -9 69 -25 87 -36 92 -57 88 -214 -7 -278 -41 -28 -123
-31 -196 -7 -27 9 -51 18 -52 20 -3 2 66 259 84 313 2 7 10 11 17 8 6 -2 37
-12 67 -20z m394 -116 c8 -13 47 -353 41 -359 -10 -11 -23 13 -32 58 l-9 45
-83 24 -84 25 -32 -37 c-29 -34 -61 -50 -53 -27 7 21 224 279 235 280 6 0 14
-4 17 -9z m174 -53 c5 -7 17 -39 26 -71 9 -32 21 -69 26 -83 l10 -26 71 61
c106 92 120 75 17 -22 -80 -75 -89 -87 -105 -144 -10 -35 -24 -63 -30 -63 -17
0 -16 2 4 81 l17 67 -28 93 c-15 51 -30 99 -33 106 -7 17 11 17 25 1z m541
-154 c17 -14 31 -30 31 -35 0 -16 -21 -10 -52 16 -37 32 -72 32 -103 0 -41
-41 -34 -55 75 -148 29 -24 32 -31 27 -68 -8 -60 -38 -82 -106 -76 -46 3 -59
9 -85 38 -24 27 -27 35 -14 37 8 2 29 -11 46 -28 36 -36 82 -40 112 -10 35 35
26 64 -36 116 -64 55 -78 82 -63 121 18 49 38 63 90 63 36 0 55 -6 78 -26z
m231 -68 c56 -26 77 -64 60 -106 -21 -52 -43 -64 -102 -56 -97 14 -89 18 -110
-61 -13 -46 -25 -73 -34 -73 -19 0 -18 9 10 104 14 44 34 114 46 154 l21 73
32 -7 c18 -3 52 -16 77 -28z m266 -72 c46 -14 84 -29 84 -35 0 -13 -11 -12
-92 11 -40 11 -75 20 -79 20 -10 0 -31 -112 -22 -120 4 -4 37 -15 72 -23 68
-17 79 -23 67 -34 -4 -4 -37 1 -74 10 -37 9 -72 17 -78 17 -9 0 -44 -92 -44
-116 0 -6 21 -15 48 -22 26 -7 64 -17 85 -23 20 -5 37 -16 37 -24 0 -11 -8
-11 -37 -4 -89 23 -163 51 -163 62 0 6 19 77 42 159 29 102 46 148 56 148 8 0
52 -12 98 -26z m314 -84 c43 -12 108 -74 90 -85 -7 -5 -21 3 -34 18 -29 34
-57 47 -106 47 -74 0 -117 -36 -139 -115 -30 -110 69 -210 174 -175 42 14 56
7 32 -17 -23 -23 -102 -22 -150 1 -97 48 -117 196 -39 280 48 51 102 66 172
46z m200 -73 c0 -23 -81 -302 -91 -311 -25 -26 -19 19 20 157 24 84 46 155 48
160 7 12 23 8 23 -6z m230 -66 c0 -3 9 -80 20 -171 24 -197 23 -180 6 -180 -8
0 -16 19 -22 51 l-9 52 -85 24 -85 25 -30 -36 c-26 -31 -55 -47 -55 -31 0 6
58 78 162 202 45 53 74 80 84 76 8 -3 14 -8 14 -12z m210 -65 c0 -8 -5 -27
-11 -43 -9 -24 -69 -238 -69 -246 0 -2 32 -11 70 -22 41 -11 70 -25 70 -32 0
-17 4 -17 -89 12 -45 14 -81 31 -81 38 0 7 18 78 42 160 26 93 46 147 55 147
7 0 13 -6 13 -14z"/>
<path d="M1660 4691 c0 -17 5 -33 10 -36 6 -3 10 -14 10 -23 0 -15 -2 -15 -10
-2 -8 13 -10 13 -10 -2 0 -17 25 -48 40 -48 14 0 21 18 10 25 -15 9 -12 25 5
25 8 0 15 9 15 20 0 11 -4 20 -10 20 -5 0 -7 -7 -4 -15 4 -8 3 -15 -1 -15 -14
0 -34 34 -35 58 0 12 -4 22 -10 22 -5 0 -10 -13 -10 -29z"/>
<path d="M1697 4690 c-6 -22 0 -25 22 -11 7 5 10 14 7 20 -11 17 -23 13 -29
-9z"/>
<path d="M1630 4684 c0 -8 5 -12 10 -9 6 4 8 11 5 16 -9 14 -15 11 -15 -7z"/>
<path d="M1550 4480 c0 -5 5 -10 10 -10 6 0 10 5 10 10 0 6 -4 10 -10 10 -5 0
-10 -4 -10 -10z"/>
<path d="M1521 4434 c0 -11 3 -14 6 -6 3 7 2 16 -1 19 -3 4 -6 -2 -5 -13z"/>
<path d="M1590 4400 c0 -4 5 -11 12 -18 9 -9 9 -12 -1 -12 -8 0 -10 -7 -6 -20
8 -25 -13 -27 -22 -2 -7 18 -22 32 -37 32 -5 0 -1 -9 8 -19 12 -13 14 -21 6
-26 -6 -4 -8 -16 -4 -28 6 -20 5 -21 -11 -7 -17 14 -18 13 -12 -17 3 -18 2
-35 -3 -38 -17 -10 -11 -35 8 -35 13 0 14 -2 3 -9 -8 -5 -10 -14 -6 -21 5 -8
4 -11 -3 -7 -6 5 -8 -1 -4 -15 3 -12 7 -17 10 -10 2 6 13 12 25 12 16 0 18 3
8 9 -7 5 -9 10 -3 12 6 3 5 21 -3 52 -9 38 -9 47 1 47 7 0 19 3 28 6 9 3 16 1
16 -5 0 -6 -8 -11 -17 -11 -16 -1 -16 -2 1 -12 16 -9 22 -6 37 13 22 30 15 42
-23 37 -16 -3 -31 -1 -34 4 -3 4 4 9 15 10 12 0 27 1 34 2 17 1 39 44 33 64
-5 15 -56 26 -56 12z"/>
<path d="M1490 4211 c0 -5 5 -13 10 -16 6 -3 10 -2 10 4 0 5 -4 13 -10 16 -5
3 -10 2 -10 -4z"/>
<path d="M1580 4200 c0 -5 5 -10 10 -10 6 0 10 5 10 10 0 6 -4 10 -10 10 -5 0
-10 -4 -10 -10z"/>
<path d="M1485 4130 c20 -22 31 -20 22 5 -4 8 -14 15 -23 15 -16 0 -16 -2 1
-20z"/>
<path d="M1560 4070 c0 -5 5 -10 11 -10 5 0 7 5 4 10 -3 6 -8 10 -11 10 -2 0
-4 -4 -4 -10z"/>
<path d="M1952 4050 c-26 -24 -29 -45 -6 -36 9 3 19 6 23 6 3 0 8 11 9 25 2
30 1 30 -26 5z"/>
<path d="M1857 4014 c-4 -4 -7 -14 -7 -23 0 -11 3 -12 11 -4 6 6 10 16 7 23
-2 6 -7 8 -11 4z"/>
<path d="M1955 3999 c-11 -17 -2 -18 19 -3 17 12 17 14 4 14 -9 0 -20 -5 -23
-11z"/>
<path d="M1455 3970 c-4 -6 -9 -9 -13 -6 -4 2 -16 0 -27 -5 -14 -6 -8 -7 19
-4 44 6 52 10 37 19 -5 4 -12 2 -16 -4z"/>
<path d="M1867 3973 c-4 -3 -7 -11 -7 -17 0 -6 5 -5 12 2 6 6 9 14 7 17 -3 3
-9 2 -12 -2z"/>
<path d="M1381 3900 c-8 -24 -7 -30 3 -30 15 0 28 48 16 55 -5 3 -13 -9 -19
-25z"/>
<path d="M1433 3907 c1 -5 6 -8 10 -8 4 1 14 1 22 1 8 0 15 4 15 10 0 5 -11 9
-25 8 -14 -1 -24 -6 -22 -11z"/>
<path d="M1797 3913 c-10 -9 -9 -23 2 -23 5 0 11 7 15 15 5 15 -5 20 -17 8z"/>
<path d="M1880 3899 c0 -5 5 -7 10 -4 6 3 10 8 10 11 0 2 -4 4 -10 4 -5 0 -10
-5 -10 -11z"/>
<path d="M1847 3859 c4 -13 8 -18 11 -10 2 7 -1 18 -6 23 -8 8 -9 4 -5 -13z"/>
<path d="M2050 3865 c-9 -11 -11 -22 -4 -32 14 -23 29 -20 32 6 5 32 -11 46
-28 26z"/>
<path d="M1395 3860 c-3 -5 1 -10 10 -10 10 0 13 -5 9 -12 -4 -7 -3 -8 4 -4
17 10 15 36 -2 36 -8 0 -18 -4 -21 -10z"/>
<path d="M1372 3840 c12 -19 28 -27 28 -14 0 7 -27 34 -34 34 -4 0 -1 -9 6
-20z"/>
<path d="M2101 3823 c0 -12 -10 -27 -21 -33 -24 -13 -26 -36 -5 -57 9 -8 17
-14 18 -12 18 34 21 50 16 84 -3 22 -7 30 -8 18z"/>
<path d="M1455 3820 c3 -5 8 -10 11 -10 2 0 4 5 4 10 0 6 -5 10 -11 10 -5 0
-7 -4 -4 -10z"/>
<path d="M1425 3790 c-3 -5 -1 -10 4 -10 6 0 11 5 11 10 0 6 -2 10 -4 10 -3 0
-8 -4 -11 -10z"/>
<path d="M1350 3754 c0 -8 5 -12 10 -9 6 3 10 10 10 16 0 5 -4 9 -10 9 -5 0
-10 -7 -10 -16z"/>
<path d="M1435 3740 c3 -5 8 -10 11 -10 2 0 4 5 4 10 0 6 -5 10 -11 10 -5 0
-7 -4 -4 -10z"/>
<path d="M1685 3720 c3 -5 8 -10 11 -10 2 0 4 5 4 10 0 6 -5 10 -11 10 -5 0
-7 -4 -4 -10z"/>
<path d="M1735 3710 c-3 -5 1 -10 10 -10 9 0 13 5 10 10 -3 6 -8 10 -10 10 -2
0 -7 -4 -10 -10z"/>
<path d="M1346 3693 c-4 -9 -1 -20 6 -25 19 -11 0 -10 -23 2 -13 8 -19 7 -19
0 0 -6 -4 -8 -10 -5 -5 3 -10 1 -10 -4 0 -11 13 -15 37 -12 20 3 24 -17 7 -34
-9 -9 -13 -19 -9 -23 3 -4 12 1 19 11 7 9 19 17 26 17 9 0 10 3 1 14 -6 7 -9
21 -5 30 4 10 1 16 -7 16 -8 0 -5 6 7 15 16 12 17 14 3 15 -9 0 -20 -8 -23
-17z"/>
<path d="M1270 3621 c0 -5 9 -11 20 -14 24 -6 27 8 4 17 -21 8 -24 8 -24 -3z"/>
<path d="M1940 3600 c20 -13 33 -13 25 0 -3 6 -14 10 -23 10 -15 0 -15 -2 -2
-10z"/>
<path d="M1357 3594 c-8 -8 1 -24 14 -24 5 0 9 7 9 15 0 15 -12 20 -23 9z"/>
<path d="M1230 3581 c0 -6 5 -13 10 -16 6 -4 7 -12 4 -18 -5 -9 -4 -9 5 -1 6
6 9 18 5 27 -7 18 -24 23 -24 8z"/>
<path d="M1960 3565 c0 -8 -5 -15 -12 -15 -6 0 -9 -2 -7 -5 3 -2 15 -2 27 2
25 6 30 33 7 33 -8 0 -15 -7 -15 -15z"/>
<path d="M1865 3560 c3 -5 10 -10 16 -10 5 0 9 5 9 10 0 6 -7 10 -16 10 -8 0
-12 -4 -9 -10z"/>
<path d="M1275 3530 c3 -5 1 -10 -4 -10 -6 0 -11 -4 -11 -8 0 -5 7 -9 15 -9 8
0 15 9 15 19 0 10 -5 18 -11 18 -5 0 -7 -4 -4 -10z"/>
<path d="M1188 3508 c-20 -25 -23 -38 -8 -38 6 0 10 -7 10 -15 0 -8 5 -15 11
-15 7 0 5 10 -5 25 -12 18 -13 25 -4 25 7 0 19 9 26 20 18 29 -7 27 -30 -2z"/>
<path d="M1225 3470 c3 -5 8 -10 11 -10 2 0 4 5 4 10 0 6 -5 10 -11 10 -5 0
-7 -4 -4 -10z"/>
<path d="M1099 3456 c-2 -2 -60 -21 -129 -41 -100 -28 -131 -42 -152 -66 -16
-16 -28 -38 -28 -49 0 -54 128 -75 191 -31 33 22 133 143 145 175 6 14 -15 23
-27 12z"/>
<path d="M1084 3299 c-3 -6 -1 -16 5 -22 8 -8 11 -8 11 1 0 7 7 12 15 12 8 0
15 5 15 10 0 13 -37 13 -46 -1z"/>
<path d="M1078 3253 c7 -3 16 -2 19 1 4 3 -2 6 -13 5 -11 0 -14 -3 -6 -6z"/>
<path d="M990 3240 c0 -5 5 -10 11 -10 5 0 7 5 4 10 -3 6 -8 10 -11 10 -2 0
-4 -4 -4 -10z"/>
<path d="M810 3226 c0 -10 65 -36 68 -27 2 5 10 7 18 4 8 -3 14 -1 14 5 0 5
-17 12 -37 16 -45 7 -63 8 -63 2z"/>
<path d="M995 3210 c4 -6 11 -8 16 -5 14 9 11 15 -7 15 -8 0 -12 -5 -9 -10z"/>
<path d="M2998 4334 c-14 -13 -9 -53 9 -74 22 -26 37 -26 23 -1 -13 26 -13 31
5 31 9 0 15 -9 15 -22 0 -16 3 -19 9 -10 12 19 1 62 -16 62 -8 0 -11 -4 -8
-10 3 -5 -1 -10 -9 -10 -8 0 -16 9 -18 21 -2 11 -6 17 -10 13z"/>
<path d="M2960 4300 c0 -5 5 -10 10 -10 6 0 10 5 10 10 0 6 -4 10 -10 10 -5 0
-10 -4 -10 -10z"/>
<path d="M2990 4242 c0 -10 35 -52 43 -52 2 0 7 7 11 15 3 10 -5 20 -24 30
-17 9 -30 12 -30 7z"/>
<path d="M5232 3248 c2 -6 10 -14 16 -16 7 -2 10 2 6 12 -7 18 -28 22 -22 4z"/>
<path d="M864 2500 c-33 -39 -60 -74 -62 -78 -3 -9 137 -46 144 -39 5 4 -15
179 -21 185 -2 2 -29 -29 -61 -68z"/>
<path d="M2096 2190 c-111 -98 -49 -270 98 -270 77 0 136 69 136 160 0 85 -58
140 -148 140 -43 0 -57 -5 -86 -30z"/>
<path d="M2795 1988 c-20 -67 -20 -64 16 -77 48 -16 94 -13 112 7 38 42 11 84
-67 107 l-46 14 -15 -51z"/>
<path d="M3176 1839 c-13 -46 -31 -107 -40 -135 l-14 -52 46 -13 c61 -17 127
-15 158 6 28 18 63 87 64 123 0 66 -72 135 -154 149 l-35 5 -25 -83z"/>
<path d="M3572 1725 c-29 -35 -55 -70 -58 -78 -3 -10 13 -19 61 -32 36 -9 68
-15 72 -12 7 8 -7 187 -16 186 -3 0 -30 -29 -59 -64z"/>
<path d="M4496 1494 c-10 -31 -14 -60 -9 -65 11 -11 83 -25 109 -21 12 2 27
14 34 27 18 34 0 72 -43 89 -73 31 -72 31 -91 -30z"/>
<path d="M5515 1153 c-30 -37 -55 -70 -55 -74 0 -8 132 -50 138 -44 8 8 -10
185 -19 185 -5 0 -33 -30 -64 -67z"/>
<path d="M2880 4095 c0 -8 5 -15 10 -15 6 0 10 7 10 15 0 8 -4 15 -10 15 -5 0
-10 -7 -10 -15z"/>
<path d="M2851 4054 c0 -11 3 -14 6 -6 3 7 2 16 -1 19 -3 4 -6 -2 -5 -13z"/>
<path d="M2920 4012 c0 -4 5 -13 12 -20 9 -9 9 -12 -1 -12 -8 0 -11 -6 -7 -15
3 -9 0 -15 -9 -15 -8 0 -15 9 -15 20 0 12 -7 20 -16 20 -14 0 -14 -3 -3 -16
10 -12 10 -17 1 -23 -8 -5 -10 -15 -5 -27 6 -17 5 -18 -12 -4 -17 14 -18 13
-11 -22 4 -24 3 -38 -4 -38 -5 0 -10 -7 -10 -15 0 -8 -4 -15 -8 -15 -5 0 -9
-7 -9 -15 0 -8 4 -15 9 -15 4 0 8 7 8 15 0 8 7 15 16 15 15 0 15 -2 1 -23 -10
-15 -12 -29 -6 -38 7 -11 9 -11 9 4 0 9 6 16 13 15 9 -2 11 13 10 55 -2 54 -1
57 23 57 30 0 31 -8 2 -20 -23 -9 -23 -9 2 -9 26 -1 65 33 55 49 -3 5 -18 5
-35 0 -22 -6 -32 -4 -42 7 -11 14 -9 15 20 9 20 -5 32 -4 32 3 0 6 7 7 17 4
10 -4 14 -2 10 4 -4 6 -1 18 7 26 9 8 11 19 6 27 -9 15 -60 25 -60 12z"/>
<path d="M3936 3808 c-9 -34 -8 -37 14 -31 11 3 20 9 20 13 0 5 3 15 6 24 4
11 0 16 -14 16 -12 0 -22 -9 -26 -22z"/>
<path d="M2910 3810 c0 -5 5 -10 10 -10 6 0 10 5 10 10 0 6 -4 10 -10 10 -5 0
-10 -4 -10 -10z"/>
<path d="M3975 3770 c-4 -16 -11 -30 -16 -30 -5 0 -4 -6 3 -14 17 -18 20 -14
24 34 4 47 -2 53 -11 10z"/>
<path d="M2807 3762 c-3 -4 3 -13 14 -20 10 -7 19 -8 19 -3 0 13 -28 33 -33
23z"/>
<path d="M3870 3735 c0 -8 -4 -15 -10 -15 -5 0 -10 -7 -10 -15 0 -10 10 -15
32 -15 25 0 29 3 20 12 -7 7 -12 20 -12 30 0 10 -4 18 -10 18 -5 0 -10 -7 -10
-15z"/>
<path d="M4286 3721 c-19 -7 -19 -8 0 -16 10 -4 30 -8 44 -8 14 0 28 -5 32
-11 5 -7 8 -4 8 7 0 10 -11 22 -26 27 -29 11 -32 11 -58 1z"/>
<path d="M2893 3695 c-3 -9 -3 -18 -1 -21 3 -3 8 4 11 16 6 23 -1 27 -10 5z"/>
<path d="M3277 3662 c-21 -23 -21 -32 -2 -32 12 0 35 28 35 44 0 12 -17 5 -33
-12z"/>
<path d="M3830 3671 c0 -6 4 -13 10 -16 6 -3 7 1 4 9 -7 18 -14 21 -14 7z"/>
<path d="M3930 3670 c0 -5 5 -10 11 -10 5 0 7 5 4 10 -3 6 -8 10 -11 10 -2 0
-4 -4 -4 -10z"/>
<path d="M3937 3643 c-4 -3 -7 -11 -7 -17 0 -6 5 -5 12 2 6 6 9 14 7 17 -3 3
-9 2 -12 -2z"/>
<path d="M3180 3620 c0 -5 5 -10 10 -10 6 0 10 5 10 10 0 6 -4 10 -10 10 -5 0
-10 -4 -10 -10z"/>
<path d="M3286 3615 c-11 -8 -15 -15 -10 -15 6 0 19 7 30 15 10 8 15 14 9 14
-5 0 -19 -6 -29 -14z"/>
<path d="M3810 3619 c0 -5 5 -7 10 -4 6 3 10 8 10 11 0 2 -4 4 -10 4 -5 0 -10
-5 -10 -11z"/>
<path d="M4355 3610 c3 -5 13 -10 21 -10 8 0 14 5 14 10 0 6 -9 10 -21 10 -11
0 -17 -4 -14 -10z"/>
<path d="M3190 3589 c0 -8 11 -14 25 -14 14 0 25 3 25 8 0 4 -4 7 -9 7 -5 0
-16 3 -25 6 -10 4 -16 1 -16 -7z"/>
<path d="M3834 3585 c-7 -17 10 -35 34 -35 20 0 10 44 -11 48 -9 2 -20 -4 -23
-13z"/>
<path d="M2770 3573 c0 -14 2 -15 9 -4 5 8 14 10 21 6 9 -5 11 -4 6 3 -11 18
-36 14 -36 -5z"/>
<path d="M4278 3554 c5 -11 8 -43 7 -72 -1 -29 1 -54 5 -57 4 -2 6 28 6 67 -1
50 -5 73 -14 76 -11 3 -12 0 -4 -14z"/>
<path d="M2711 3504 c-11 -38 -6 -64 12 -64 7 0 7 4 -1 12 -20 20 -14 28 14
18 33 -13 34 -13 28 4 -3 8 -13 12 -25 9 -15 -4 -18 -2 -13 13 4 11 11 25 17
32 7 8 5 12 -6 12 -10 0 -20 -14 -26 -36z"/>
<path d="M2776 3531 c-16 -6 -17 -9 -6 -16 9 -5 15 -4 18 3 2 7 8 10 13 6 5
-3 9 0 9 5 0 12 -7 13 -34 2z"/>
<path d="M3126 3525 c-3 -8 -1 -15 3 -15 5 0 11 7 15 15 3 8 1 15 -3 15 -5 0
-11 -7 -15 -15z"/>
<path d="M3215 3520 c-3 -5 -1 -10 4 -10 6 0 11 5 11 10 0 6 -2 10 -4 10 -3 0
-8 -4 -11 -10z"/>
<path d="M3751 3508 c-2 -13 19 -58 26 -58 5 0 9 14 10 31 2 25 0 29 -11 20
-11 -9 -15 -9 -19 1 -3 7 -6 10 -6 6z"/>
<path d="M3376 3475 c-7 -20 4 -47 18 -42 17 6 20 57 3 57 -8 0 -17 -7 -21
-15z"/>
<path d="M4305 3480 c3 -5 8 -10 11 -10 2 0 4 5 4 10 0 6 -5 10 -11 10 -5 0
-7 -4 -4 -10z"/>
<path d="M3181 3464 c0 -11 3 -14 6 -6 3 7 2 16 -1 19 -3 4 -6 -2 -5 -13z"/>
<path d="M5722 3457 c-8 -10 -103 -268 -127 -347 -18 -57 25 5 84 123 41 81
64 139 67 173 7 52 -4 75 -24 51z"/>
<path d="M3431 3438 c0 -10 -10 -23 -21 -30 -24 -15 -27 -48 -4 -48 8 0 12 -4
9 -10 -3 -5 -2 -10 2 -10 19 0 30 37 23 75 -4 22 -8 32 -9 23z"/>
<path d="M4190 3420 c0 -5 5 -10 10 -10 6 0 10 5 10 10 0 6 -4 10 -10 10 -5 0
-10 -4 -10 -10z"/>
<path d="M2745 3400 c-3 -6 1 -7 9 -4 18 7 21 14 7 14 -6 0 -13 -4 -16 -10z"/>
<path d="M5629 3369 c-23 -33 -15 -56 13 -35 18 13 32 66 18 66 -5 0 -18 -14
-31 -31z"/>
<path d="M2680 3374 c0 -8 5 -12 10 -9 6 4 8 11 5 16 -9 14 -15 11 -15 -7z"/>
<path d="M4238 3343 c-15 -4 -27 -23 -14 -23 2 0 11 -3 19 -6 8 -3 17 2 20 10
7 18 -1 24 -25 19z"/>
<path d="M3068 3323 c7 -3 16 -2 19 1 4 3 -2 6 -13 5 -11 0 -14 -3 -6 -6z"/>
<path d="M2670 3310 c-12 -8 -12 -10 3 -16 9 -3 17 -11 17 -16 0 -6 -6 -5 -15
2 -17 14 -50 5 -40 -11 4 -5 10 -8 13 -5 3 3 11 1 19 -6 11 -9 11 -14 -3 -29
-16 -17 -15 -19 10 -29 35 -13 36 -13 36 6 0 11 -6 14 -22 9 l-23 -6 23 20
c12 11 18 22 13 25 -5 3 -7 15 -4 26 3 13 0 20 -8 21 -8 0 -5 4 6 9 13 6 15 9
5 9 -8 0 -22 -3 -30 -9z"/>
<path d="M3660 3305 c0 -9 6 -12 15 -9 8 4 12 10 9 15 -8 14 -24 10 -24 -6z"/>
<path d="M5555 3300 c-3 -5 -1 -10 4 -10 6 0 11 5 11 10 0 6 -2 10 -4 10 -3 0
-8 -4 -11 -10z"/>
<path d="M3681 3281 c-10 -6 -9 -10 3 -14 8 -3 18 -2 21 3 8 13 -9 20 -24 11z"/>
<path d="M5554 3272 c3 -6 -2 -13 -11 -15 -10 -3 -2 -5 17 -4 39 2 48 20 11
25 -14 2 -21 0 -17 -6z"/>
<path d="M2600 3246 c0 -7 9 -16 21 -19 20 -5 20 -5 3 14 -20 23 -24 23 -24 5z"/>
<path d="M4573 3225 c-3 -9 -3 -19 1 -22 8 -9 37 18 30 28 -8 14 -24 11 -31
-6z"/>
<path d="M3272 3218 c5 -15 28 -23 28 -10 0 5 -7 13 -16 16 -10 4 -14 1 -12
-6z"/>
<path d="M3748 3214 c24 -17 39 -14 27 5 -3 6 -16 11 -28 11 l-21 0 22 -16z"/>
<path d="M4115 3220 c3 -5 8 -10 11 -10 2 0 4 5 4 10 0 6 -5 10 -11 10 -5 0
-7 -4 -4 -10z"/>
<path d="M5521 3214 c0 -11 3 -14 6 -6 3 7 2 16 -1 19 -3 4 -6 -2 -5 -13z"/>
<path d="M2561 3198 c0 -7 4 -22 8 -32 10 -26 25 -3 16 24 -7 22 -25 28 -24 8z"/>
<path d="M3190 3185 c0 -2 7 -8 15 -15 12 -10 15 -10 15 2 0 8 -7 15 -15 15
-8 0 -15 -1 -15 -2z"/>
<path d="M3270 3180 c0 -5 6 -7 14 -4 8 3 17 0 21 -5 3 -6 11 -9 16 -5 5 3 7
10 4 15 -8 12 -55 12 -55 -1z"/>
<path d="M5580 3169 c0 -5 5 -7 10 -4 6 3 10 8 10 11 0 2 -4 4 -10 4 -5 0 -10
-5 -10 -11z"/>
<path d="M2600 3150 c0 -5 7 -7 15 -4 8 4 15 8 15 10 0 2 -7 4 -15 4 -8 0 -15
-4 -15 -10z"/>
<path d="M5550 3149 c0 -5 5 -7 10 -4 6 3 10 8 10 11 0 2 -4 4 -10 4 -5 0 -10
-5 -10 -11z"/>
<path d="M2522 3127 c-12 -13 -22 -32 -21 -43 0 -16 2 -16 10 4 5 13 12 21 17
18 4 -2 12 7 19 20 14 30 3 31 -25 1z"/>
<path d="M3598 3143 c7 -3 16 -2 19 1 4 3 -2 6 -13 5 -11 0 -14 -3 -6 -6z"/>
<path d="M4095 3129 c-4 -6 -5 -13 -2 -16 7 -7 27 6 27 18 0 12 -17 12 -25 -2z"/>
<path d="M2600 3123 c8 -3 19 -11 23 -17 6 -7 7 -6 4 4 -2 8 -12 16 -23 17
-13 2 -15 1 -4 -4z"/>
<path d="M2555 3090 c3 -5 8 -10 11 -10 2 0 4 5 4 10 0 6 -5 10 -11 10 -5 0
-7 -4 -4 -10z"/>
<path d="M3572 3089 c2 -7 10 -15 17 -17 8 -3 12 1 9 9 -2 7 -10 15 -17 17 -8
3 -12 -1 -9 -9z"/>
<path d="M4087 3075 c-10 -9 -17 -19 -17 -22 0 -4 3 -3 7 0 3 4 12 2 19 -4 16
-13 28 5 16 27 -8 14 -10 14 -25 -1z"/>
<path d="M2400 3060 c-30 -10 -84 -26 -119 -35 -126 -32 -178 -76 -153 -129
19 -42 114 -49 177 -12 41 25 160 167 153 185 -2 6 -27 2 -58 -9z"/>
<path d="M5510 3070 c0 -5 5 -10 10 -10 6 0 10 5 10 10 0 6 -4 10 -10 10 -5 0
-10 -4 -10 -10z"/>
<path d="M5170 3061 c0 -6 4 -13 10 -16 6 -3 7 1 4 9 -7 18 -14 21 -14 7z"/>
<path d="M5440 3060 c0 -5 5 -10 10 -10 6 0 10 5 10 10 0 6 -4 10 -10 10 -5 0
-10 -4 -10 -10z"/>
<path d="M4050 3031 c0 -6 6 -8 14 -5 9 3 19 -4 26 -17 11 -20 13 -21 22 -5
12 21 11 22 -29 31 -21 4 -33 3 -33 -4z"/>
<path d="M4750 3010 c0 -5 4 -10 9 -10 5 0 16 -3 25 -6 11 -4 16 -1 16 10 0
10 -9 16 -25 16 -14 0 -25 -4 -25 -10z"/>
<path d="M3975 3000 c3 -5 8 -10 11 -10 2 0 4 5 4 10 0 6 -5 10 -11 10 -5 0
-7 -4 -4 -10z"/>
<path d="M4046 3001 c-8 -12 21 -34 34 -26 7 4 5 11 -4 21 -17 16 -23 17 -30
5z"/>
<path d="M4456 2980 c-19 -6 -19 -7 -1 -13 20 -8 29 -4 24 11 -2 5 -13 6 -23
2z"/>
<path d="M4000 2964 c0 -8 5 -14 10 -14 6 0 10 5 10 12 0 6 9 2 21 -10 11 -12
25 -20 30 -16 12 7 -22 33 -51 39 -13 2 -20 -2 -20 -11z"/>
<path d="M5181 2964 c0 -11 3 -14 6 -6 3 7 2 16 -1 19 -3 4 -6 -2 -5 -13z"/>
<path d="M5968 2965 c-4 -6 -3 -17 3 -25 14 -23 11 -30 -11 -30 -11 0 -20 7
-20 15 0 8 -9 15 -20 15 -11 0 -20 -4 -20 -10 0 -5 5 -10 12 -10 6 0 19 -6 27
-13 23 -20 105 1 91 22 -7 12 -11 12 -23 2 -13 -10 -15 -9 -10 11 3 17 2 19
-5 9 -8 -11 -11 -10 -14 5 -2 11 -6 14 -10 9z"/>
<path d="M5471 2943 c0 -11 3 -13 6 -5 2 6 9 10 13 7 5 -3 11 -1 15 5 3 5 -3
10 -14 10 -14 0 -21 -6 -20 -17z"/>
<path d="M3940 2928 c1 -19 50 -53 50 -35 0 14 -31 47 -43 47 -4 0 -7 -6 -7
-12z"/>
<path d="M4737 2924 c-11 -12 3 -24 29 -24 13 0 24 5 24 11 0 6 -6 9 -14 6 -7
-3 -18 -1 -23 4 -5 5 -12 6 -16 3z"/>
<path d="M2410 2916 c0 -9 40 -13 46 -5 3 5 -6 9 -20 9 -14 0 -26 -2 -26 -4z"/>
<path d="M4036 2911 c-4 -7 -5 -15 -2 -18 9 -9 19 4 14 18 -4 11 -6 11 -12 0z"/>
<path d="M5467 2913 c-3 -3 1 -12 9 -20 8 -9 18 -13 21 -10 3 3 -1 13 -10 21
-8 8 -17 12 -20 9z"/>
<path d="M2415 2890 c3 -5 8 -10 11 -10 2 0 4 5 4 10 0 6 -5 10 -11 10 -5 0
-7 -4 -4 -10z"/>
<path d="M4395 2880 c-4 -7 -1 -16 6 -21 17 -10 26 8 11 23 -6 6 -12 6 -17 -2z"/>
<path d="M5877 2883 c-4 -3 -7 -11 -7 -17 0 -6 5 -5 12 2 6 6 9 14 7 17 -3 3
-9 2 -12 -2z"/>
<path d="M4738 2840 c-7 -24 -3 -38 8 -28 3 4 4 17 2 30 l-3 23 -7 -25z"/>
<path d="M5030 2851 c0 -5 5 -13 10 -16 6 -3 10 -2 10 4 0 5 -4 13 -10 16 -5
3 -10 2 -10 -4z"/>
<path d="M2149 2837 c7 -9 18 -14 23 -11 5 3 16 -2 23 -12 10 -13 14 -15 15
-5 0 7 6 11 15 8 8 -4 17 -2 19 2 3 5 -12 11 -33 15 -22 3 -48 9 -58 13 -16 6
-16 5 -4 -10z"/>
<path d="M4006 2834 c-9 -22 3 -32 14 -14 12 19 12 30 1 30 -5 0 -12 -7 -15
-16z"/>
<path d="M2320 2830 c0 -5 5 -10 10 -10 6 0 10 5 10 10 0 6 -4 10 -10 10 -5 0
-10 -4 -10 -10z"/>
<path d="M5355 2830 c-3 -6 1 -7 9 -4 18 7 21 14 7 14 -6 0 -13 -4 -16 -10z"/>
<path d="M5011 2804 c0 -11 3 -14 6 -6 3 7 2 16 -1 19 -3 4 -6 -2 -5 -13z"/>
<path d="M5048 2803 c7 -3 16 -2 19 1 4 3 -2 6 -13 5 -11 0 -14 -3 -6 -6z"/>
<path d="M4530 2790 c-12 -8 -11 -10 8 -10 12 0 22 5 22 10 0 13 -11 13 -30 0z"/>
<path d="M4986 2773 c-10 -10 -7 -33 5 -33 5 0 8 4 5 9 -4 5 -1 11 6 13 8 3 9
6 1 11 -5 4 -13 4 -17 0z"/>
<path d="M5025 2760 c3 -5 8 -10 11 -10 2 0 4 5 4 10 0 6 -5 10 -11 10 -5 0
-7 -4 -4 -10z"/>
<path d="M5390 2756 c0 -2 7 -7 16 -10 8 -3 12 -2 9 4 -6 10 -25 14 -25 6z"/>
<path d="M4692 2738 c-16 -16 -15 -28 3 -28 8 0 15 2 15 4 0 2 3 11 6 20 7 19
-7 21 -24 4z"/>
<path d="M5025 2730 c-3 -5 -1 -10 4 -10 6 0 11 5 11 10 0 6 -2 10 -4 10 -3 0
-8 -4 -11 -10z"/>
<path d="M5323 2716 c-9 -11 -7 -15 12 -18 21 -4 23 -3 14 13 -11 22 -11 22
-26 5z"/>
<path d="M5398 2723 c7 -3 16 -2 19 1 4 3 -2 6 -13 5 -11 0 -14 -3 -6 -6z"/>
<path d="M5000 2694 c0 -8 6 -11 15 -8 8 4 15 9 15 13 0 4 -7 8 -15 8 -8 0
-15 -6 -15 -13z"/>
<path d="M4668 2693 c7 -3 16 -2 19 1 4 3 -2 6 -13 5 -11 0 -14 -3 -6 -6z"/>
<path d="M5850 2680 c0 -5 4 -10 9 -10 6 0 13 5 16 10 3 6 -1 10 -9 10 -9 0
-16 -4 -16 -10z"/>
<path d="M5000 2630 c0 -5 5 -10 11 -10 5 0 7 5 4 10 -3 6 -8 10 -11 10 -2 0
-4 -4 -4 -10z"/>
<path d="M5370 2604 c0 -9 -5 -12 -12 -8 -7 4 -8 3 -4 -4 9 -16 36 -3 29 14
-7 18 -13 18 -13 -2z"/>
<path d="M5815 2589 c-4 -11 -4 -23 -1 -26 3 -4 6 1 6 11 0 9 4 14 10 11 6 -3
7 1 4 9 -8 21 -11 20 -19 -5z"/>
<path d="M5860 2590 c0 -5 10 -10 23 -10 18 0 19 2 7 10 -19 13 -30 13 -30 0z"/>
<path d="M5795 2454 c9 -9 18 -14 21 -11 9 9 -6 27 -22 27 -13 0 -13 -2 1 -16z"/>
<path d="M5686 2432 c-60 -33 -75 -54 -56 -77 24 -29 62 -14 94 38 38 62 26
74 -38 39z"/>
<path d="M5883 2445 c-7 -8 -9 -16 -4 -19 5 -3 12 1 15 10 8 22 4 25 -11 9z"/>
<path d="M5840 2354 c0 -15 26 -19 34 -5 3 5 -3 11 -14 14 -13 3 -20 0 -20 -9z"/>
</g>
</svg>
